Coordinates
version=1
nRows=13
nColumns=34
inDegrees=yes

Units are S.I. units (second, meters, Newtons, ...)
If the header above contains a line with 'inDegrees', this indicates whether rotational values are in degrees (yes) or radians (no).

endheader
time	pelvis_tilt	pelvis_list	pelvis_rotation	pelvis_tx	pelvis_ty	pelvis_tz	hip_flexion_r	hip_adduction_r	hip_rotation_r	knee_angle_r	ankle_angle_r	subtalar_angle_r	mtp_angle_r	hip_flexion_l	hip_adduction_l	hip_rotation_l	knee_angle_l	ankle_angle_l	subtalar_angle_l	mtp_angle_l	lumbar_extension	lumbar_bending	lumbar_rotation	arm_flex_r	arm_add_r	arm_rot_r	elbow_flex_r	pro_sup_r	arm_flex_l	arm_add_l	arm_rot_l	elbow_flex_l	pro_sup_l
      0.00000000	    -17.45016048	     -7.41293181	     10.26378478	      0.80190966	      0.82270528	     -0.11903281	     23.64104729	      3.00067344	    -23.04998509	      1.37899809	     10.23546178	     -1.64074977	      0.00000000	      5.00415242	     -6.29403148	     -7.87542586	      0.00000000	     13.26713287	     15.96975917	      0.00000000	      7.19539836	      8.89663053	     -0.20198941	    -27.23011510	     -7.15863464	     -8.70283415	     51.97953309	     86.16825897	     -8.90637596	    -16.28850318	     19.03830044	     43.42590136	     80.78305159
      0.01666670	    -19.89464378	     -8.15375608	     11.75573228	      0.81240029	      0.81893428	     -0.12104021	     26.57018946	      3.01766257	    -25.48879117	      3.00545490	     10.54643802	     -0.77097733	      0.00000000	      7.20537657	     -6.18437810	     -9.96494832	      0.00000000	     14.15845108	     21.09632787	      0.00000000	      9.75400404	      9.02133041	     -0.60110188	    -27.46663278	     -5.99844308	    -10.00336226	     48.33192049	     86.00122503	     -8.92731377	    -15.52320354	     17.76179523	     42.66742562	     80.32998830
      0.03333330	    -19.75039936	     -7.69980913	     12.04791377	      0.82618667	      0.82044359	     -0.12002663	     25.14173302	      3.28394393	    -27.20004885	      2.67529099	     10.40466441	      0.54684777	      0.00000000	      6.16099875	     -6.03227969	    -12.72903134	      0.00000000	     14.63055749	     24.03479746	      0.00000000	      9.40913868	      8.53999387	     -0.82018947	    -28.04354448	     -5.76655407	     -9.84211836	     47.77419945	     85.94736360	     -9.81531998	    -15.65000610	     17.36989841	     41.63559508	     80.15238168
      0.05000000	    -19.51635230	     -7.87818527	     12.74175941	      0.84478376	      0.82134404	     -0.11994725	     23.63626587	      3.67698917	    -28.84803686	      2.77962408	     10.12383556	      1.09390961	      0.00000000	      5.24907018	     -6.40596921	    -14.46909967	      0.00000000	     14.59370684	     26.11141238	      0.00000000	      9.53931146	      8.75567186	     -1.47319479	    -29.28040749	     -5.66541555	    -10.32984688	     48.62677288	     85.76058885	    -11.35208123	    -15.30590008	     16.20545172	     40.01634712	     79.87739601
      0.06666670	    -19.30421498	     -8.33040689	     13.50563517	      0.86546474	      0.82233346	     -0.11948584	     22.13083072	      4.38208904	    -30.01405051	      2.88671313	     10.10926102	      1.24001891	      0.00000000	      4.35274219	     -7.07365080	    -15.15780438	      0.00000000	     14.55633486	     27.63073897	      0.00000000	      9.99533148	      9.37012537	     -2.05880273	    -30.82439110	     -5.23615866	    -11.91305723	     49.48989188	     85.60958500	    -12.94507698	    -14.44804339	     14.13806370	     37.97635358	     79.46156244
      0.08333330	    -19.05984625	     -8.74163175	     14.16143802	      0.88219780	      0.82426742	     -0.11791008	     20.64871853	      5.15031364	    -31.10310393	      2.77084675	      9.95387789	      1.13147798	      0.00000000	      3.67386154	     -7.81358205	    -15.43065140	      0.00000000	     14.14988395	     28.21328567	      0.00000000	     10.35131108	      9.81150343	     -2.52434294	    -31.51275301	     -4.77642051	    -13.05520147	     49.05400026	     85.65501680	    -14.29626123	    -13.74216144	     12.28262548	     35.91591358	     79.05277125
      0.10000000	    -18.70608484	     -8.97373370	     14.39541598	      0.90143176	      0.82525976	     -0.11665875	     18.84009404	      5.98707637	    -32.12966038	      2.65690554	      9.41505434	      1.02406142	      0.00000000	      2.79774462	     -8.43968363	    -15.84515700	      0.00000000	     12.94937159	     28.14299229	      0.00000000	     10.74071435	     10.02131073	     -3.05145466	    -31.61565233	     -4.80961713	    -13.41131497	     48.11126939	     85.93158901	    -16.18467519	    -12.99183124	     10.06380773	     33.82403672	     78.41073174
      0.11666670	    -18.83052829	     -8.92962387	     14.30257593	      0.91256492	      0.82493595	     -0.11393356	     17.75483480	      6.50324861	    -33.23706843	      2.32413261	      9.06385035	      1.35217966	      0.00000000	      2.46417367	     -8.62405217	    -17.08108347	      0.00000000	     10.86755801	     27.36435875	      0.00000000	     11.32177021	      9.44564399	     -4.44196475	    -30.11614368	     -6.01175657	    -10.63232638	     45.86504476	     87.14854423	    -18.98349126	    -11.79162776	      4.62011967	     33.33801143	     76.75320519
      0.13333330	    -18.66433467	     -8.78734806	     14.18857814	      0.91848666	      0.82465305	     -0.11131792	     16.59088469	      6.96405294	    -34.14711057	      1.87651728	      8.20055783	      1.46647456	      0.00000000	      1.95503994	     -8.73706901	    -18.57793582	      0.00000000	      8.61788174	     26.72327354	      0.00000000	     11.41336596	      9.29566994	     -4.14155384	    -29.35994947	     -6.29969303	    -10.50592121	     45.55966186	     87.15567302	    -19.88872376	    -11.69953066	      4.46976746	     32.72232391	     76.71167867
      0.15000000	    -18.59789145	     -8.60411044	     14.25289661	      0.92650232	      0.82494787	     -0.10964183	     15.80413825	      7.18515920	    -35.20380332	      1.43295948	      7.53087226	      1.49434168	      0.00000000	      1.63073575	     -8.74049563	    -19.73263083	      0.00000000	      6.51911943	     25.90926636	      0.00000000	     11.57997962	      8.65893363	     -5.05872494	    -26.95118895	     -7.63356318	     -7.03601439	     43.02666861	     87.38289039	    -20.90427524	    -10.93017213	      1.65181262	     31.16897951	     75.80403068
      0.16666670	    -18.47439982	     -8.35871382	     14.23997677	      0.92920597	      0.82738240	     -0.10766516	     15.30382207	      7.30659356	    -35.94979791	      0.75767717	      7.11170099	      1.53171650	      0.00000000	      1.35389176	     -8.67156087	    -20.70565691	      0.00000000	      4.58339722	     25.38476593	      0.00000000	     11.24060599	      8.38067581	     -4.25558665	    -25.84728481	     -7.97036944	     -6.69582892	     43.28107774	     87.36130248	    -21.02995451	    -10.90707586	      1.29198598	     31.16398852	     75.71337332
      0.18333330	    -18.54000054	     -8.06682306	     14.32956951	      0.93888063	      0.82947908	     -0.10631281	     14.83961254	      7.34608742	    -36.62902590	      0.00000000	      6.69722192	      1.51693552	      0.00000000	      1.15445865	     -8.52420590	    -20.89362843	      0.00000000	      3.38031434	     25.16901991	      0.00000000	     11.12588384	      7.85818155	     -3.34824141	    -24.93044214	     -8.23033568	     -6.55784670	     43.58341519	     87.36700250	    -21.24171599	    -11.05271392	      1.05471535	     30.98467485	     75.65207380
      0.20000000	    -17.82784799	     -7.38031382	     14.53829729	      0.94528737	      0.83271013	     -0.10519913	     13.68193740	      6.91587745	    -37.01078600	      0.00000000	      6.58442718	      2.09185838	      0.00000000	     -0.02064130	     -8.15698840	    -20.53664450	      0.00000000	      0.12760611	     23.54794394	      0.00000000	     10.03700104	      7.41459390	     -1.85943304	    -24.16655830	     -8.67554462	     -5.80032207	     44.15574200	     87.42120959	    -20.75683241	    -11.01687661	      0.00001853	     30.62396733	     75.39723668
